<svg width="189" height="42" viewBox="0 0 189 42" fill="none" xmlns="http://www.w3.org/2000/svg">
<mask id="mask0_317_16" style="mask-type:luminance" maskUnits="userSpaceOnUse" x="0" y="0" width="189" height="42">
<path d="M188.587 0.0478516H0.492188V41.3176H188.587V0.0478516Z" fill="white"/>
</mask>
<g mask="url(#mask0_317_16)">
<path d="M173.359 10.4552H178.277L171.241 29.2599C170.323 31.7047 169.311 33.4407 168.209 34.468C167.103 35.4908 165.679 36.0066 163.923 36.0066C162.951 36.0066 162.109 35.881 161.411 35.6433L161.232 31.8258C161.657 31.911 162.141 31.9559 162.678 31.9559C163.807 31.9559 164.658 31.6912 165.244 31.1574C165.822 30.6236 166.413 29.556 167 27.9545L159.816 10.4507H165.047L169.387 22.4863L173.364 10.4507L173.359 10.4552ZM157.806 28.928H152.83V3.63672H157.806V28.928ZM148.419 28.928H143.443V3.63672H148.419V28.928ZM127.021 23.3969C127.021 24.7696 127.885 25.4559 129.618 25.4559C131.042 25.4559 132.243 25.0297 133.228 24.1685C134.209 23.3162 134.697 22.2575 134.697 21.0104V20.5663L129.779 21.1719C127.939 21.3693 127.021 22.1095 127.021 23.3969ZM122.977 16.2464C123.384 14.2188 124.302 12.6847 125.726 11.6529C127.151 10.6167 129.04 10.1008 131.392 10.1008C133.926 10.1008 135.857 10.693 137.2 11.8638C138.535 13.0391 139.202 14.7885 139.202 17.1122V24.2941C139.202 25.1015 139.574 25.5142 140.317 25.5142C140.546 25.5142 140.747 25.4918 140.931 25.4469L140.828 28.8517C140.169 29.0939 139.511 29.215 138.839 29.215C136.327 29.215 134.957 28.1474 134.728 26.0166C133.335 28.1698 131.284 29.2464 128.566 29.2464C126.68 29.2464 125.176 28.753 124.047 27.7661C122.923 26.7882 122.363 25.4604 122.363 23.7917C122.363 22.1229 122.954 20.7278 124.132 19.7768C125.31 18.8303 127.151 18.2202 129.65 17.9466L134.661 17.3859C134.661 14.9904 133.528 13.7927 131.262 13.7927C130.156 13.7927 129.282 14.0574 128.642 14.5867C127.997 15.116 127.639 15.8786 127.563 16.8745L122.972 16.233L122.977 16.2464ZM111.373 23.0291V14.322H108.48V10.4552H109.814C110.24 10.4552 110.567 10.4418 110.795 10.4193C111.024 10.3969 111.248 10.3251 111.467 10.204C111.691 10.0784 111.843 9.93934 111.937 9.77785C112.031 9.60739 112.121 9.33375 112.206 8.94797C112.296 8.55321 112.354 8.14051 112.381 7.69642C112.407 7.25232 112.439 6.63775 112.47 5.86619H116.38V10.4552H121.167V14.322H116.38V22.0781C116.38 23.2623 116.595 24.0922 117.007 24.5587C117.423 25.0253 118.158 25.263 119.206 25.263C119.824 25.263 120.576 25.1778 121.463 25.0163L121.329 28.901C120.124 29.1433 118.928 29.2644 117.732 29.2644C115.596 29.2644 114.002 28.7575 112.945 27.7571C111.897 26.7523 111.368 25.1778 111.368 23.038L111.373 23.0291ZM98.4796 13.9901C97.2435 13.9901 96.2359 14.3175 95.4477 14.9814C94.6639 15.6409 94.1444 16.5784 93.8937 17.7986H102.886C102.739 16.5694 102.282 15.6229 101.493 14.9725C100.71 14.322 99.7022 13.9946 98.4751 13.9946L98.4796 13.9901ZM98.4796 29.2554C95.5686 29.2554 93.2443 28.3852 91.5111 26.6536C89.7824 24.9176 88.9136 22.5939 88.9136 19.6826C88.9136 16.7713 89.7735 14.5463 91.4887 12.7699C93.204 10.9935 95.5238 10.1008 98.4527 10.1008C101.158 10.1008 103.357 10.9038 105.04 12.5052C106.729 14.1067 107.575 16.2554 107.575 18.9469C107.575 19.6512 107.508 20.3017 107.374 20.9028H93.7996C93.9608 22.3293 94.4445 23.4328 95.2417 24.2133C96.0433 24.9939 97.1316 25.3841 98.5109 25.3841C100.822 25.3841 102.259 24.4645 102.819 22.6208L107.405 23.4238C106.366 27.313 103.388 29.2599 98.4796 29.2599V29.2554ZM57.0762 28.9235V10.4552H61.4472L61.8548 13.8106C62.5041 12.6488 63.3416 11.7427 64.3806 11.0922C65.4196 10.4328 66.5571 10.1098 67.8111 10.1098C69.2039 10.1098 70.3817 10.4373 71.3536 11.0922C72.3254 11.7427 73.0196 12.6667 73.4361 13.8645C74.1392 12.6892 75.0304 11.7741 76.1052 11.1101C77.1845 10.4418 78.3713 10.1098 79.6611 10.1098C81.5913 10.1098 83.1006 10.7109 84.1888 11.9131C85.2816 13.1153 85.828 14.7751 85.828 16.8924V28.9324H80.8121V17.83C80.8121 16.7668 80.5613 15.9369 80.0507 15.3448C79.5402 14.7527 78.8057 14.4566 77.8384 14.4566C76.6426 14.4566 75.6932 14.8783 74.9946 15.7216C74.2914 16.5694 73.9466 17.6999 73.9466 19.1174V28.9324H68.9621V17.83C68.9621 16.7803 68.7023 15.9549 68.1873 15.3493C67.6723 14.7527 66.9423 14.4566 65.9884 14.4566C64.7926 14.4566 63.8387 14.8783 63.1266 15.7216C62.4146 16.5694 62.0563 17.6999 62.0563 19.1174V28.9324H57.0807L57.0762 28.9235Z" fill="#012F6B"/>
<path fill-rule="evenodd" clip-rule="evenodd" d="M24.4254 5.43945H32.406V22.1493V33.4491L24.4254 41.4429V30.1386V13.4288H16.4492L24.4254 5.43945Z" fill="#F50309"/>
<path fill-rule="evenodd" clip-rule="evenodd" d="M16.4489 5.43945V22.1493L8.46832 30.1386V13.4288H0.492188L8.46832 5.43945H16.4489Z" fill="#012F6B"/>
<path d="M40.3824 5.43945H48.3629V22.1493L40.3824 30.1386V13.4288H32.4062L40.3824 5.43945Z" fill="black"/>
<path fill-rule="evenodd" clip-rule="evenodd" d="M40.3824 5.43945H48.3629V22.1493L40.3824 30.1386V13.4288H32.4062L40.3824 5.43945Z" fill="url(#paint0_linear_317_16)"/>
<path d="M184.646 6.48035H184.006V7.27435H184.646C184.799 7.27435 184.911 7.23846 184.991 7.17117C185.072 7.10389 185.112 7.0052 185.112 6.87511C185.112 6.61044 184.955 6.48035 184.646 6.48035ZM183.003 9.29747V5.68187H184.767C185.175 5.68187 185.502 5.78505 185.739 5.99139C185.981 6.19774 186.097 6.47587 186.097 6.83025C186.097 7.09043 186.03 7.31472 185.891 7.49864C185.753 7.68256 185.56 7.81714 185.314 7.89788L186.285 9.29747H185.126L184.306 8.07283H184.006V9.29747H183.003ZM182.138 9.79988C182.712 10.3696 183.473 10.6522 184.431 10.6522C185.39 10.6522 186.156 10.3696 186.724 9.79988C187.293 9.23018 187.58 8.46759 187.58 7.50761C187.58 6.54764 187.293 5.78505 186.724 5.21534C186.151 4.65012 185.39 4.36303 184.431 4.36303C183.473 4.36303 182.707 4.65012 182.138 5.21534C181.565 5.78505 181.279 6.54764 181.279 7.50313C181.279 8.45861 181.565 9.22569 182.138 9.79091V9.79988ZM186.008 11.0918C185.52 11.2892 184.996 11.3879 184.436 11.3879C183.876 11.3879 183.352 11.2892 182.864 11.0918C182.376 10.8944 181.959 10.6253 181.61 10.2844C181.261 9.94343 180.987 9.53073 180.786 9.05075C180.589 8.57076 180.486 8.05489 180.486 7.50761C180.486 6.77642 180.656 6.11251 180.996 5.52038C181.337 4.92825 181.807 4.4662 182.412 4.13425C183.012 3.8023 183.688 3.63184 184.431 3.63184C184.991 3.63184 185.515 3.73052 186.003 3.9279C186.491 4.12528 186.908 4.39443 187.257 4.73536C187.602 5.07628 187.875 5.48449 188.077 5.96448C188.274 6.44447 188.377 6.96034 188.377 7.50761C188.377 8.05489 188.278 8.56627 188.077 9.05075C187.875 9.53073 187.602 9.93894 187.257 10.2844C186.908 10.6253 186.491 10.8944 186.003 11.0918H186.008Z" fill="#012F6B"/>
</g>
<defs>
<linearGradient id="paint0_linear_317_16" x1="48.4346" y1="15.7883" x2="32.3315" y2="19.7818" gradientUnits="userSpaceOnUse">
<stop stop-color="#757B7B"/>
<stop offset="0.26" stop-color="#DDDEE0"/>
<stop offset="0.51" stop-color="#6B7375"/>
<stop offset="1" stop-color="#FDFDFD"/>
</linearGradient>
</defs>
</svg>
